<svg width="22" height="21" viewBox="0 0 22 21" fill="none" xmlns="http://www.w3.org/2000/svg">
<path fill-rule="evenodd" clip-rule="evenodd" d="M16.2634 17.2638L19.3846 20.3851L20.7988 18.9709L18.0163 16.1883C19.787 14.8772 21.1793 13.0827 22 11.0001C20.27 6.61014 16 3.50014 11 3.50014C9.32979 3.50014 7.74104 3.84716 6.30121 4.473L2.41423 0.585938L1 2.00014L4.47013 5.47034C2.46788 6.80283 0.894451 8.7304 0 11.0001C1.73 15.3901 6 18.5001 11 18.5001C12.8916 18.5001 14.6787 18.055 16.2634 17.2638ZM16.5934 14.7654C17.9472 13.8276 19.0641 12.544 19.82 11.0001C18.17 7.63014 14.79 5.50014 11 5.50014C9.90246 5.50014 8.8393 5.67876 7.84258 6.0144L8.86717 7.03901C9.50239 6.69539 10.229 6.50014 11 6.50014C13.48 6.50014 15.5 8.52014 15.5 11.0001C15.5 11.7712 15.3047 12.4978 14.9611 13.1331L16.5934 14.7654ZM13.6407 14.6411L14.7614 15.7618C13.5962 16.2415 12.3242 16.5001 11 16.5001C7.2 16.5001 3.83 14.3701 2.18 11.0001C3.02708 9.27005 4.33011 7.86677 5.91049 6.91073L7.3591 8.35937C6.819 9.10171 6.5 10.0146 6.5 11.0001C6.5 13.4801 8.52 15.5001 11 15.5001C11.9855 15.5001 12.8984 15.1812 13.6407 14.6411ZM13.4276 11.5995C13.4749 11.4075 13.5 11.2067 13.5 11.0001C13.5 9.62014 12.38 8.50014 11 8.50014C10.7934 8.50014 10.5927 8.52523 10.4007 8.57254L13.4276 11.5995ZM8.80422 9.80451L12.1956 13.1959C11.8404 13.3899 11.433 13.5001 11 13.5001C9.62 13.5001 8.5 12.3801 8.5 11.0001C8.5 10.5671 8.61026 10.1597 8.80422 9.80451Z" fill="#342620"/>
</svg>
